# xmcd
#
# Track frame offsets:
#	150
#	17788
#	33236
#	51565
#	68966
#	88118
#	116362
#	139487
#	169423
#	187502
#	211498
#	230232
#	246419
#
# Disc length: 3461 seconds
#
# Revision: 0
# Processed by: cddbd v1.5.2PL0 Copyright (c) Steve Scherf et al.
# Submitted via: audiograbber 1.83.01
#
DISCID=c10d830d
DTITLE=Ry Cooder - Live in Sausalito 1974
DYEAR=1974
DGENRE=Blues
TTITLE0=Police Dog Blues
TTITLE1=F.D.R. in Trinidad
TTITLE2=If Walls Could Talk
TTITLE3=Temp Ém Up Solid
TTITLE4=Ax Sweet Mama
TTITLE5=Billy The Kid
TTITLE6=Vigilante Man
TTITLE7=How Can A Poor Man Stand Such Times And Live
TTITLE8=Tattler
TTITLE9=Coming On A Wing And A Prayer
TTITLE10=Alimony
TTITLE11=Teardrops Will Fall
TTITLE12=I´m A Pilgrim
EXTD=
EXTT0=
EXTT1=
EXTT2=
EXTT3=
EXTT4=
EXTT5=
EXTT6=
EXTT7=
EXTT8=
EXTT9=
EXTT10=
EXTT11=
EXTT12=
PLAYORDER=
